<?xml version="1.0" standalone="no"?>
<!DOCTYPE svg PUBLIC "-//W3C//DTD SVG 20010904//EN"
 "http://www.w3.org/TR/2001/REC-SVG-20010904/DTD/svg10.dtd">
<svg version="1.0" xmlns="http://www.w3.org/2000/svg"
 width="130.000000pt" height="176.000000pt" viewBox="0 0 130.000000 176.000000"
 preserveAspectRatio="xMidYMid meet">

<g transform="translate(0.000000,176.000000) scale(0.100000,-0.100000)"
fill="#000000" stroke="none">
<path d="M750 1744 c-111 -17 -261 -73 -347 -131 -126 -83 -263 -243 -317
-368 -9 -22 -21 -47 -25 -56 -27 -49 -52 -196 -53 -302 0 -407 250 -735 648
-849 66 -18 103 -22 224 -22 164 0 227 13 350 71 l75 36 -50 8 c-112 19 -162
33 -231 64 -257 117 -418 338 -443 610 -9 93 -8 117 10 220 56 320 324 571
647 604 l67 6 -27 19 c-38 25 -156 65 -245 82 -68 13 -221 17 -283 8z m75
-147 c-251 -200 -365 -426 -365 -722 0 -147 22 -242 84 -370 67 -140 166 -258
279 -333 20 -13 37 -29 37 -33 0 -16 -79 -10 -163 12 -232 59 -401 198 -502
412 -139 295 -70 649 169 867 131 119 306 196 451 199 l50 0 -40 -32z"/>
</g>
</svg>
