<?xml version="1.0" standalone="no"?>
<!DOCTYPE svg PUBLIC "-//W3C//DTD SVG 20010904//EN"
 "http://www.w3.org/TR/2001/REC-SVG-20010904/DTD/svg10.dtd">
<svg version="1.0" xmlns="http://www.w3.org/2000/svg"
 width="130.000000pt" height="177.000000pt" viewBox="0 0 130.000000 177.000000"
 preserveAspectRatio="xMidYMid meet">

<g transform="translate(0.000000,177.000000) scale(0.100000,-0.100000)"
fill="#000000" stroke="none">
<path d="M745 1764 c-11 -3 -55 -14 -98 -25 -337 -84 -591 -374 -638 -724 -36
-271 53 -533 245 -726 120 -121 244 -190 418 -235 92 -23 116 -26 228 -21 137
6 225 26 338 78 57 26 64 32 47 39 -11 5 -36 9 -55 9 -40 1 -109 20 -189 50
-176 67 -339 228 -418 416 -112 263 -41 607 168 813 113 112 239 178 400 210
l94 19 -42 21 c-92 48 -210 74 -348 78 -71 1 -139 1 -150 -2z"/>
</g>
</svg>
