<?xml version="1.0" standalone="no"?>
<!DOCTYPE svg PUBLIC "-//W3C//DTD SVG 20010904//EN"
 "http://www.w3.org/TR/2001/REC-SVG-20010904/DTD/svg10.dtd">
<svg version="1.0" xmlns="http://www.w3.org/2000/svg"
 width="800.000000pt" height="600.000000pt" viewBox="0 0 800.000000 600.000000"
 preserveAspectRatio="xMidYMid meet">

<g transform="translate(0.000000,600.000000) scale(0.100000,-0.100000)"
fill="#000000" stroke="none">
<path d="M4055 5879 c-131 -12 -352 -52 -491 -89 -802 -213 -1473 -748 -1858
-1481 -175 -333 -279 -671 -322 -1047 -23 -192 -15 -593 15 -777 135 -835 588
-1543 1286 -2010 309 -208 664 -356 1059 -442 117 -26 133 -26 524 -30 443 -5
499 0 734 57 246 61 397 115 613 220 397 194 740 469 1019 820 81 102 94 140
58 173 -32 29 -64 20 -134 -37 -405 -335 -882 -507 -1408 -509 -268 -1 -456
29 -700 109 -545 181 -996 565 -1266 1079 -112 213 -193 470 -229 719 -20 139
-23 425 -5 561 108 861 686 1568 1504 1840 257 85 434 109 743 102 244 -6 356
-22 561 -82 295 -86 540 -213 776 -403 95 -76 129 -88 159 -54 31 34 21 69
-47 156 -419 535 -994 901 -1666 1060 -256 61 -664 90 -925 65z m635 -144
c500 -71 970 -268 1361 -571 88 -69 175 -144 165 -144 -4 0 -37 15 -74 34
-317 159 -769 244 -1149 217 -330 -24 -589 -94 -878 -236 -705 -346 -1181
-1007 -1291 -1790 -23 -162 -23 -480 0 -630 117 -765 562 -1397 1236 -1758
206 -110 497 -203 755 -243 146 -22 496 -25 620 -6 266 43 503 111 691 201 57
27 104 48 104 46 0 -1 -37 -34 -82 -72 -421 -352 -880 -559 -1433 -645 -114
-18 -185 -22 -385 -22 -148 0 -283 5 -340 12 -542 74 -1024 274 -1420 589
-121 96 -348 321 -443 438 -319 395 -527 873 -605 1388 -21 142 -24 615 -4
752 75 515 262 964 569 1368 92 120 352 385 473 481 261 207 549 362 875 471
211 70 416 112 690 139 86 9 456 -4 565 -19z"/>
</g>
</svg>
