<?xml version="1.0" standalone="no"?>
<!DOCTYPE svg PUBLIC "-//W3C//DTD SVG 20010904//EN"
 "http://www.w3.org/TR/2001/REC-SVG-20010904/DTD/svg10.dtd">
<svg version="1.0" xmlns="http://www.w3.org/2000/svg"
 width="131.000000pt" height="126.000000pt" viewBox="0 0 131.000000 126.000000"
 preserveAspectRatio="xMidYMid meet">

<g transform="translate(0.000000,126.000000) scale(0.100000,-0.100000)"
fill="#000000" stroke="none">
<path d="M591 1037 c-35 -111 -70 -217 -77 -234 l-13 -33 -241 -2 -241 -3 193
-139 c106 -77 194 -140 195 -141 1 -1 -31 -104 -72 -230 -41 -126 -72 -231
-71 -233 2 -2 86 57 187 131 101 73 189 136 196 140 7 5 88 -48 204 -133 106
-77 194 -138 196 -136 2 2 -28 102 -67 222 -38 120 -70 224 -70 230 0 6 87 73
192 150 l193 139 -242 3 -242 2 -76 232 c-42 128 -77 233 -78 234 -1 2 -31
-88 -66 -199z"/>
</g>
</svg>
