<?xml version="1.0" standalone="no"?>
<!DOCTYPE svg PUBLIC "-//W3C//DTD SVG 20010904//EN"
 "http://www.w3.org/TR/2001/REC-SVG-20010904/DTD/svg10.dtd">
<svg version="1.0" xmlns="http://www.w3.org/2000/svg"
 width="131.000000pt" height="124.000000pt" viewBox="0 0 131.000000 124.000000"
 preserveAspectRatio="xMidYMid meet">

<g transform="translate(0.000000,124.000000) scale(0.100000,-0.100000)"
fill="#000000" stroke="none">
<path d="M586 1013 c-38 -120 -73 -226 -78 -235 -8 -16 -33 -18 -249 -20
l-240 -3 194 -142 195 -143 -44 -137 c-24 -76 -57 -178 -74 -227 -16 -49 -28
-91 -26 -93 2 -3 87 56 188 129 100 74 188 137 195 141 7 4 91 -50 204 -133
106 -77 194 -138 197 -136 2 2 -28 103 -67 224 -39 121 -71 224 -71 229 0 5
87 72 193 149 l192 139 -242 3 -243 2 -76 235 c-42 129 -77 235 -78 235 -1 0
-33 -98 -70 -217z m124 -176 l46 -142 159 -5 160 -5 -115 -83 c-63 -46 -121
-87 -129 -91 -11 -7 -4 -37 37 -160 28 -83 48 -151 46 -151 -2 0 -61 41 -130
91 l-125 91 -27 -18 c-15 -10 -72 -51 -126 -91 -55 -40 -101 -71 -104 -69 -2
3 18 70 44 150 27 80 46 147 44 149 -3 2 -61 44 -128 93 l-124 89 159 3 160 2
47 151 c26 83 51 148 54 144 4 -4 27 -70 52 -148z"/>
</g>
</svg>
