<?xml version="1.0" standalone="no"?>
<!DOCTYPE svg PUBLIC "-//W3C//DTD SVG 20010904//EN"
 "http://www.w3.org/TR/2001/REC-SVG-20010904/DTD/svg10.dtd">
<svg version="1.0" xmlns="http://www.w3.org/2000/svg"
 width="117.000000pt" height="124.000000pt" viewBox="0 0 117.000000 124.000000"
 preserveAspectRatio="xMidYMid meet">

<g transform="translate(0.000000,124.000000) scale(0.100000,-0.100000)"
fill="#000000" stroke="none">
<path d="M490 1085 l-95 -154 -192 -1 c-106 0 -193 -2 -193 -5 0 -3 42 -73 94
-156 l94 -151 -94 -149 c-52 -83 -94 -152 -94 -154 0 -3 86 -6 192 -7 l192 -3
95 -153 95 -152 51 79 c27 44 71 114 97 155 l47 76 191 0 c104 0 190 2 190 4
0 3 -42 72 -94 155 l-94 149 94 151 c52 83 94 153 94 156 0 3 -87 5 -192 5
l-193 1 -63 102 c-34 56 -77 125 -95 154 l-32 52 -95 -154z m151 -72 l48 -78
-49 -3 c-27 -2 -74 -2 -104 0 l-55 3 51 83 c28 45 53 80 56 78 2 -3 26 -40 53
-83z m-301 -159 c0 -4 -17 -34 -37 -68 -66 -110 -56 -108 -108 -26 -69 107
-72 100 44 100 56 0 101 -3 101 -6z m468 -109 c40 -64 72 -120 72 -126 0 -6
-32 -62 -71 -125 l-71 -114 -153 0 -153 0 -71 114 c-39 63 -71 119 -71 125 0
6 32 62 72 126 l71 115 152 0 152 0 71 -115z m219 101 c-3 -7 -26 -46 -52 -86
l-46 -72 -49 78 c-27 44 -50 82 -50 87 0 4 45 7 101 7 81 0 100 -3 96 -14z
m-733 -380 c25 -40 46 -76 46 -80 0 -3 -45 -6 -100 -6 -55 0 -100 2 -100 5 0
10 93 155 100 155 5 0 29 -33 54 -74z m690 -1 c25 -42 46 -78 46 -80 0 -3 -45
-5 -100 -5 -55 0 -100 3 -100 6 0 12 92 154 100 154 4 0 28 -34 54 -75z m-300
-167 c-22 -40 -97 -158 -99 -158 -2 0 -77 118 -99 158 -6 9 17 12 99 12 82 0
105 -3 99 -12z"/>
</g>
</svg>
